<svg width="35" height="51" viewBox="0 0 35 51" fill="none" xmlns="http://www.w3.org/2000/svg">
<path opacity="0.08" d="M31.9395 45.085C32.6162 45.085 33.1529 45.2833 33.5495 45.68C33.9462 46.0767 34.1445 46.59 34.1445 47.22V51H0.684531V48.865C0.684531 48.4217 0.777865 47.9667 0.964531 47.5C1.1512 47.0333 1.44286 46.6017 1.83953 46.205L17.9045 30.07C19.2345 28.7167 20.4479 27.4217 21.5445 26.185C22.6412 24.925 23.5745 23.665 24.3445 22.405C25.1145 21.145 25.7095 19.8733 26.1295 18.59C26.5495 17.2833 26.7595 15.895 26.7595 14.425C26.7595 12.955 26.5262 11.6717 26.0595 10.575C25.5929 9.455 24.9512 8.53333 24.1345 7.81C23.3412 7.08666 22.3962 6.55 21.2995 6.2C20.2029 5.82667 19.0245 5.64 17.7645 5.64C16.4812 5.64 15.3029 5.82667 14.2295 6.2C13.1562 6.57333 12.1995 7.09833 11.3595 7.775C10.5429 8.42833 9.85453 9.21 9.29453 10.12C8.73453 11.03 8.33787 12.0333 8.10453 13.13C7.82453 13.9467 7.43953 14.495 6.94953 14.775C6.48287 15.0317 5.81787 15.1017 4.95453 14.985L1.69953 14.425C2.0262 12.1383 2.6562 10.12 3.58953 8.37C4.5462 6.59667 5.7362 5.115 7.15953 3.925C8.6062 2.735 10.2512 1.83667 12.0945 1.23C13.9379 0.599997 15.9329 0.284996 18.0795 0.284996C20.2029 0.284996 22.1862 0.599997 24.0295 1.23C25.8729 1.86 27.4712 2.78166 28.8245 3.995C30.1779 5.185 31.2395 6.64333 32.0095 8.37C32.7795 10.0967 33.1645 12.0567 33.1645 14.25C33.1645 16.1167 32.8845 17.855 32.3245 19.465C31.7645 21.0517 31.0062 22.5683 30.0495 24.015C29.0929 25.4617 27.9845 26.8733 26.7245 28.25C25.4879 29.6267 24.1695 31.015 22.7695 32.415L9.53953 45.925C10.4729 45.6683 11.4179 45.47 12.3745 45.33C13.3312 45.1667 14.2529 45.085 15.1395 45.085H31.9395Z" fill="#262D33"/>
</svg>
