<svg width="35" height="52" viewBox="0 0 35 52" fill="none" xmlns="http://www.w3.org/2000/svg">
<path opacity="0.08" d="M1.94453 14.425C2.2712 12.1383 2.9012 10.12 3.83453 8.37C4.76786 6.59667 5.9462 5.115 7.36953 3.925C8.8162 2.735 10.4612 1.83667 12.3045 1.23C14.1712 0.599997 16.1779 0.284996 18.3245 0.284996C20.4479 0.284996 22.4079 0.588329 24.2045 1.195C26.0012 1.80166 27.5412 2.665 28.8245 3.785C30.1312 4.905 31.1462 6.25833 31.8695 7.845C32.5929 9.43166 32.9545 11.1933 32.9545 13.13C32.9545 14.7167 32.7445 16.14 32.3245 17.4C31.9279 18.6367 31.3445 19.7217 30.5745 20.655C29.8279 21.5883 28.9179 22.3817 27.8445 23.035C26.7712 23.6883 25.5695 24.225 24.2395 24.645C27.5062 25.485 29.9562 26.9317 31.5895 28.985C33.2462 31.015 34.0745 33.5583 34.0745 36.615C34.0745 38.925 33.6312 41.0017 32.7445 42.845C31.8812 44.6883 30.6912 46.2633 29.1745 47.57C27.6579 48.8533 25.8845 49.845 23.8545 50.545C21.8479 51.2217 19.6895 51.56 17.3795 51.56C14.7195 51.56 12.4445 51.2333 10.5545 50.58C8.66453 49.9033 7.0662 48.9817 5.75953 47.815C4.45286 46.6483 3.37953 45.2717 2.53953 43.685C1.69953 42.075 0.987865 40.3367 0.404531 38.47L3.09953 37.35C3.79953 37.0467 4.4762 36.965 5.12953 37.105C5.8062 37.245 6.2962 37.63 6.59953 38.26C6.90287 38.9133 7.2762 39.695 7.71953 40.605C8.1862 41.515 8.8162 42.39 9.60953 43.23C10.4029 44.07 11.4062 44.7817 12.6195 45.365C13.8562 45.9483 15.4195 46.24 17.3095 46.24C19.0595 46.24 20.5879 45.96 21.8945 45.4C23.2245 44.8167 24.3212 44.07 25.1845 43.16C26.0712 42.25 26.7362 41.235 27.1795 40.115C27.6229 38.995 27.8445 37.8867 27.8445 36.79C27.8445 35.4367 27.6695 34.2 27.3195 33.08C26.9695 31.96 26.3162 30.9917 25.3595 30.175C24.4029 29.3583 23.0845 28.7167 21.4045 28.25C19.7479 27.7833 17.6129 27.55 14.9995 27.55V23.035C17.1462 23.0117 18.9662 22.7783 20.4595 22.335C21.9762 21.8917 23.2012 21.285 24.1345 20.515C25.0912 19.745 25.7795 18.8233 26.1995 17.75C26.6429 16.6767 26.8645 15.4867 26.8645 14.18C26.8645 12.7333 26.6312 11.4733 26.1645 10.4C25.7212 9.32666 25.1029 8.44 24.3095 7.74C23.5162 7.04 22.5712 6.515 21.4745 6.165C20.4012 5.815 19.2345 5.64 17.9745 5.64C16.7145 5.64 15.5362 5.82667 14.4395 6.2C13.3662 6.57333 12.4095 7.09833 11.5695 7.775C10.7529 8.42833 10.0645 9.21 9.50453 10.12C8.94453 11.03 8.54787 12.0333 8.31453 13.13C8.0112 13.9467 7.6262 14.495 7.15953 14.775C6.7162 15.0317 6.06287 15.1017 5.19953 14.985L1.94453 14.425Z" fill="#262D33"/>
</svg>
