<svg width="33" height="52" viewBox="0 0 33 52" fill="none" xmlns="http://www.w3.org/2000/svg">
<path opacity="0.08" d="M9.06453 19.78C11.6779 19.22 14.0812 18.94 16.2745 18.94C18.8879 18.94 21.1979 19.325 23.2045 20.095C25.2112 20.865 26.8795 21.9267 28.2095 23.28C29.5629 24.6333 30.5779 26.2317 31.2545 28.075C31.9545 29.9183 32.3045 31.925 32.3045 34.095C32.3045 36.755 31.8379 39.1583 30.9045 41.305C29.9945 43.4517 28.7229 45.295 27.0895 46.835C25.4795 48.3517 23.5779 49.5183 21.3845 50.335C19.1912 51.1517 16.8229 51.56 14.2795 51.56C12.8095 51.56 11.3979 51.4083 10.0445 51.105C8.6912 50.825 7.41953 50.44 6.22953 49.95C5.06286 49.46 3.97786 48.9 2.97453 48.27C1.9712 47.64 1.08453 46.975 0.314531 46.275L2.23953 43.615C2.65953 43.0083 3.20786 42.705 3.88453 42.705C4.3512 42.705 4.8762 42.8917 5.45953 43.265C6.04286 43.615 6.75453 44.0117 7.59453 44.455C8.43453 44.8983 9.41453 45.3067 10.5345 45.68C11.6779 46.03 13.0312 46.205 14.5945 46.205C16.3445 46.205 17.9195 45.925 19.3195 45.365C20.7195 44.805 21.9212 44.0117 22.9245 42.985C23.9279 41.935 24.6979 40.6867 25.2345 39.24C25.7712 37.7933 26.0395 36.1717 26.0395 34.375C26.0395 32.8117 25.8062 31.4 25.3395 30.14C24.8962 28.88 24.2079 27.8067 23.2745 26.92C22.3645 26.0333 21.2212 25.345 19.8445 24.855C18.4679 24.365 16.8579 24.12 15.0145 24.12C13.7545 24.12 12.4362 24.225 11.0595 24.435C9.7062 24.645 8.31787 24.9833 6.89453 25.45L2.97453 24.295L6.99953 0.844997H30.7645V3.575C30.7645 4.46167 30.4845 5.19667 29.9245 5.78C29.3879 6.34 28.4545 6.62 27.1245 6.62H11.3745L9.06453 19.78Z" fill="#262D33"/>
</svg>
