 <svg display="none" xmlns="http://www.w3.org/2000/svg">
  <!-- flag -->
  <symbol id="flag" viewBox="0 0 14 18" xmlns="http://www.w3.org/2000/svg">
    <path fill-rule="evenodd" clip-rule="evenodd" d="M2 0H12C13.1046 0 14 0.89543 14 2V18L7.09495 13L0 18V2C0 0.89543 0.89543 0 2 0Z"/>
  </symbol>
  <!-- arrow-next -->
  <symbol id="arrow-next" viewBox="0 0 15 7" xmlns="http://www.w3.org/2000/svg">
    <path fill-rule="evenodd" clip-rule="evenodd" d="M0 3V4H11V7L15 3.5L11 0V3H0Z" fill="white"/>
  </symbol>
  <!-- arrow-prev -->
  <symbol id="arrow-prev" viewBox="0 0 15 7" xmlns="http://www.w3.org/2000/svg">
    <path fill-rule="evenodd" clip-rule="evenodd" d="M15 3V4H4V7L0 3.5L4 0V3H15Z" fill="white"/>
  </symbol>
  <!-- home -->
  <symbol id="home" viewBox="0 0 18 17" xmlns="http://www.w3.org/2000/svg">
<path fill-rule="evenodd" clip-rule="evenodd" d="M2 17H7V11H11V17H16V10H18L9 0L0 10H2V17Z" fill="white"/>
</symbol>
  <!-- comment -->
  <symbol id="comment" viewBox="0 0 15 15" xmlns="http://www.w3.org/2000/svg">
    <path fill-rule="evenodd" clip-rule="evenodd" d="M11.1346 12V15L8.36064 12H2.25C1.42157 12 0.75 11.3284 0.75 10.5V3C0.75 2.17157 1.42157 1.5 2.25 1.5H12.75C13.5784 1.5 14.25 2.17157 14.25 3V10.5C14.25 11.3284 13.5784 12 12.75 12H11.1346Z"/>
  </symbol>
  <!-- like -->
  <symbol id="like" viewBox="0 0 13 13" xmlns="http://www.w3.org/2000/svg">
    <path fill-rule="evenodd" clip-rule="evenodd" d="M11.8391 1.96008C11.1701 1.21166 10.2807 0.799805 9.33459 0.799805C8.38831 0.799805 7.59423 1.21166 6.925 1.96008L6.49998 2.63896L6.075 1.96008C5.40597 1.21166 4.61164 0.799805 3.66557 0.799805C2.71953 0.799805 1.82982 1.21166 1.16086 1.96008C-0.220288 3.5053 -0.220288 6.01943 1.16086 7.56405L6.10991 12.3205C6.19083 12.4114 6.29157 12.467 6.39682 12.4884C6.43211 12.4962 6.46761 12.4998 6.50317 12.4998C6.64318 12.4998 6.78341 12.4401 6.89004 12.3205L11.8391 7.56405C13.2203 6.01943 13.2203 3.5053 11.8391 1.96008Z" fill="white"/>
  </symbol>
  <!-- time -->
  <symbol id="time" viewBox="0 0 18 17" xmlns="http://www.w3.org/2000/svg">
    <path fill-rule="evenodd" clip-rule="evenodd" d="M7.5 14.25C3.77208 14.25 0.75 11.2279 0.75 7.5C0.75 3.77208 3.77208 0.75 7.5 0.75C11.2279 0.75 14.25 3.77208 14.25 7.5C14.25 11.2279 11.2279 14.25 7.5 14.25ZM8.25 7.5V4.5C8.25 4.08579 7.91421 3.75 7.5 3.75C7.08579 3.75 6.75 4.08579 6.75 4.5V8.25C6.75 8.66421 7.08579 9 7.5 9H9.75C10.1642 9 10.5 8.66421 10.5 8.25C10.5 7.83579 10.1642 7.5 9.75 7.5H8.25Z" fill="white"/>
  </symbol>
  <!-- share -->
  <symbol id="share" viewBox="0 0 20 20" xmlns="http://www.w3.org/2000/svg">
    <path fill-rule="evenodd" clip-rule="evenodd" d="M18.7816 9.13237L12.665 4.20204C12.0971 3.74422 11.125 4.1316 11.125 4.69507V6.8785C7.93568 6.98415 5.54369 7.82935 3.75243 9.27323C1 11.4919 1 14 1 15.2C3.75243 11.84 11.125 11.84 11.125 11.84V14.5205C11.125 15.084 12.1408 15.4361 12.665 15.0135L18.7816 10.0832C18.9563 9.94235 19 9.77608 19 9.6C19 9.42392 18.9563 9.27323 18.7816 9.13237Z" fill="white"/>
  </symbol>
  <!-- fb-author -->
  <symbol id="fb-author" viewBox="0 0 40 40" xmlns="http://www.w3.org/2000/svg">    
    <path d="M39.5 20C39.5 30.7696 30.7696 39.5 20 39.5C9.23045 39.5 0.5 30.7696 0.5 20C0.5 9.23045 9.23045 0.5 20 0.5C30.7696 0.5 39.5 9.23045 39.5 20Z" stroke="#D9DADB"/>
    <path fill-rule="evenodd" clip-rule="evenodd" d="M24.6234 11.0037L22.2249 11C19.5302 11 17.7888 12.7387 17.7888 15.4298V17.4723H15.3771C15.1688 17.4723 15 17.6367 15 17.8395V20.7988C15 21.0016 15.1689 21.1658 15.3771 21.1658H17.7888V28.633C17.7888 28.8358 17.9575 29 18.1659 29H21.3124C21.5208 29 21.6896 28.8356 21.6896 28.633V21.1658H24.5093C24.7177 21.1658 24.8865 21.0016 24.8865 20.7988L24.8876 17.8395C24.8876 17.7421 24.8478 17.6489 24.7772 17.5799C24.7066 17.511 24.6103 17.4723 24.5103 17.4723H21.6896V15.7409C21.6896 14.9087 21.8933 14.4862 23.0073 14.4862L24.623 14.4857C24.8312 14.4857 25 14.3212 25 14.1186V11.3708C25 11.1683 24.8314 11.0041 24.6234 11.0037Z" fill="#BCBFC2"/>
  </symbol>
  <!-- tw-author -->
  <symbol id="tw-author" viewBox="0 0 40 40" xmlns="http://www.w3.org/2000/svg">
    <path d="M39.5 20C39.5 30.7696 30.7696 39.5 20 39.5C9.23045 39.5 0.5 30.7696 0.5 20C0.5 9.23045 9.23045 0.5 20 0.5C30.7696 0.5 39.5 9.23045 39.5 20Z" stroke="#D9DADB"/>
    <path fill-rule="evenodd" clip-rule="evenodd" d="M28.979 14.363C28.9532 14.3323 28.9106 14.3218 28.8743 14.3386C28.3361 14.5796 27.77 14.7528 27.1869 14.8552C27.8059 14.3851 28.2672 13.7342 28.5037 12.9877C28.5151 12.952 28.5033 12.9129 28.4744 12.8897C28.4453 12.8664 28.4049 12.8634 28.373 12.8826C27.6758 13.3 26.9206 13.5942 26.1276 13.7574C25.4248 13.0212 24.4435 12.6001 23.4278 12.6001C21.3623 12.6001 19.6821 14.2962 19.6821 16.381C19.6821 16.6331 19.7063 16.8828 19.7542 17.1253C16.8934 16.9471 14.2184 15.5607 12.3995 13.3087C12.3809 13.2857 12.3527 13.2728 12.3232 13.2758C12.2939 13.278 12.2677 13.2948 12.2529 13.3203C11.9211 13.8949 11.7458 14.5524 11.7458 15.2212C11.7458 16.3804 12.2675 17.4642 13.1559 18.1794C12.6985 18.1239 12.2518 17.9786 11.849 17.7528C11.8219 17.7374 11.7882 17.7376 11.7611 17.7534C11.734 17.769 11.7168 17.7981 11.7161 17.8297L11.7157 17.8781C11.7157 19.5429 12.8025 21.0046 14.3487 21.49C13.9415 21.5562 13.5189 21.5517 13.1036 21.4717C13.073 21.466 13.0409 21.4766 13.0199 21.5004C12.999 21.5242 12.992 21.5575 13.0016 21.5877C13.4653 23.0485 14.7535 24.0729 16.2531 24.2006C15.0022 25.1257 13.5237 25.613 11.9615 25.613C11.6737 25.613 11.3839 25.5957 11.1 25.5621C11.0594 25.5574 11.0192 25.5818 11.0052 25.621C10.9912 25.6607 11.0061 25.705 11.0412 25.7275C12.7317 26.8219 14.6864 27.4001 16.6943 27.4001C23.2619 27.4001 27.1865 22.0149 27.1865 16.8088C27.1865 16.6638 27.1837 16.5196 27.178 16.3757C27.8865 15.8526 28.4947 15.2123 28.9851 14.4711C29.007 14.438 29.0046 14.3939 28.979 14.363Z" fill="#BCBFC2"/>
  </symbol>
  <!-- inst-author -->
  <symbol id="inst-author" viewBox="0 0 40 40" xmlns="http://www.w3.org/2000/svg">
    <path d="M39.5 20C39.5 30.7696 30.7696 39.5 20 39.5C9.23045 39.5 0.5 30.7696 0.5 20C0.5 9.23045 9.23045 0.5 20 0.5C30.7696 0.5 39.5 9.23045 39.5 20Z" stroke="#D9DADB"/>
    <path fill-rule="evenodd" clip-rule="evenodd" d="M20 11.5C22.3085 11.5 22.5979 11.5098 23.5045 11.5512C24.4093 11.5924 25.0272 11.7361 25.5678 11.9463C26.1268 12.1634 26.6008 12.4541 27.0734 12.9266C27.5459 13.3992 27.8366 13.8732 28.0538 14.4322C28.2639 14.9728 28.4076 15.5907 28.4488 16.4955C28.4902 17.4021 28.5 17.6915 28.5 20C28.5 22.3085 28.4902 22.5979 28.4488 23.5045C28.4076 24.4093 28.2639 25.0272 28.0538 25.5678C27.8366 26.1268 27.5459 26.6008 27.0734 27.0734C26.6008 27.5459 26.1268 27.8366 25.5678 28.0538C25.0272 28.2639 24.4093 28.4076 23.5045 28.4488C22.5979 28.4902 22.3085 28.5 20 28.5C17.6915 28.5 17.4021 28.4902 16.4955 28.4488C15.5907 28.4076 14.9728 28.2639 14.4322 28.0538C13.8732 27.8366 13.3992 27.5459 12.9266 27.0734C12.4541 26.6008 12.1634 26.1268 11.9463 25.5678C11.7361 25.0272 11.5924 24.4093 11.5512 23.5045C11.5098 22.5979 11.5 22.3085 11.5 20C11.5 17.6915 11.5098 17.4021 11.5512 16.4955C11.5924 15.5907 11.7361 14.9728 11.9463 14.4322C12.1634 13.8732 12.4541 13.3992 12.9266 12.9266C13.3992 12.4541 13.8732 12.1634 14.4322 11.9463C14.9728 11.7361 15.5907 11.5924 16.4955 11.5512C17.4021 11.5098 17.6915 11.5 20 11.5ZM19.9973 22.8298C21.5616 22.8298 22.8298 21.5616 22.8298 19.9973C22.8298 18.433 21.5616 17.1649 19.9973 17.1649C18.433 17.1649 17.1649 18.433 17.1649 19.9973C17.1649 21.5616 18.433 22.8298 19.9973 22.8298ZM19.9973 15.6338C22.4072 15.6338 24.3608 17.5874 24.3608 19.9973C24.3608 22.4072 22.4072 24.3608 19.9973 24.3608C17.5874 24.3608 15.6338 22.4072 15.6338 19.9973C15.6338 17.5874 17.5874 15.6338 19.9973 15.6338ZM25.8556 15.3722C25.8556 15.946 25.3904 16.4111 24.8166 16.4111C24.2429 16.4111 23.7778 15.946 23.7778 15.3722C23.7778 14.7985 24.2429 14.3333 24.8166 14.3333C25.3904 14.3333 25.8556 14.7985 25.8556 15.3722Z" fill="#BCBFC2"/>
  </symbol>
  <!-- eye -->
  <symbol id="eye" viewBox="0 0 15 11" xmlns="http://www.w3.org/2000/svg">
    <path fill-rule="evenodd" clip-rule="evenodd" d="M15 5.26196C15 5.26196 12 10.375 7.5 10.375C3 10.375 0 5.26196 0 5.26196C0 5.26196 3 0.625 7.5 0.625C12 0.625 15 5.26196 15 5.26196ZM7.5 2.875C8.94707 2.875 10.125 4.05325 10.125 5.50082C10.125 6.94757 8.94707 8.125 7.5 8.125C6.05293 8.125 4.875 6.95085 4.875 5.50082C4.875 4.05325 6.05293 2.875 7.5 2.875ZM7.49858 6.81285C8.22277 6.81285 8.80965 6.22181 8.80965 5.4967C8.80965 4.77104 8.22222 4.18 7.49858 4.18C6.77549 4.18 6.1875 4.76939 6.1875 5.4956C6.1875 6.22181 6.77549 6.81285 7.49858 6.81285Z"/>
  </symbol>
  <!-- fb-support -->
  <symbol id="fb-support" viewBox="0 0 20 20" xmlns="http://www.w3.org/2000/svg">
    <path fill-rule="evenodd" clip-rule="evenodd" d="M14.6234 1.00375L12.2249 1C9.5302 1 7.78878 2.73871 7.78878 5.42982V7.47227H5.37715C5.16875 7.47227 5 7.63668 5 7.83949V10.7988C5 11.0016 5.16895 11.1658 5.37715 11.1658H7.78878V18.633C7.78878 18.8358 7.95753 19 8.16593 19H11.3124C11.5208 19 11.6896 18.8356 11.6896 18.633V11.1658H14.5093C14.7177 11.1658 14.8865 11.0016 14.8865 10.7988L14.8876 7.83949C14.8876 7.74211 14.8478 7.64886 14.7772 7.57994C14.7066 7.51103 14.6103 7.47227 14.5103 7.47227H11.6896V5.74086C11.6896 4.90868 11.8933 4.48622 13.0073 4.48622L14.623 4.48566C14.8312 4.48566 15 4.32124 15 4.11863V1.37077C15 1.16835 14.8314 1.00412 14.6234 1.00375Z" fill="white"/>
  </symbol>
  <!-- tw-support -->
  <symbol id="tw-support" viewBox="0 0 20 20" xmlns="http://www.w3.org/2000/svg">
    <path fill-rule="evenodd" clip-rule="evenodd" d="M18.979 4.36284C18.9532 4.33213 18.9106 4.32171 18.8743 4.33846C18.3361 4.57945 17.77 4.7527 17.1869 4.85505C17.8059 4.38498 18.2672 3.73403 18.5037 2.98761C18.5151 2.95188 18.5033 2.9128 18.4744 2.88954C18.4453 2.86628 18.4049 2.8633 18.373 2.88247C17.6758 3.29987 16.9206 3.59409 16.1276 3.75729C15.4248 3.0211 14.4435 2.59998 13.4278 2.59998C11.3623 2.59998 9.68211 4.29603 9.68211 6.38083C9.68211 6.63299 9.70626 6.88273 9.75419 7.12521C6.89336 6.94693 4.21836 5.56053 2.3995 3.30862C2.38088 3.28554 2.35268 3.2727 2.32318 3.27568C2.29387 3.27791 2.26769 3.29466 2.25294 3.32016C1.9211 3.89481 1.74578 4.55228 1.74578 5.2211C1.74578 6.38027 2.2675 7.46408 3.15591 8.17924C2.69853 8.12378 2.25183 7.97844 1.84902 7.75271C1.82192 7.73727 1.78818 7.73745 1.76108 7.75327C1.73398 7.7689 1.71683 7.79793 1.7161 7.82957L1.71573 7.87795C1.71573 9.54274 2.8025 11.0045 4.3487 11.4898C3.94145 11.5561 3.51891 11.5516 3.10356 11.4716C3.07295 11.4658 3.04088 11.4764 3.01986 11.5003C2.99903 11.5241 2.99202 11.5574 3.00161 11.5875C3.46526 13.0484 4.75354 14.0728 6.25309 14.2005C5.00224 15.1255 3.5237 15.6129 1.96147 15.6129C1.67369 15.6129 1.38389 15.5956 1.09998 15.5619C1.05942 15.5573 1.01923 15.5817 1.00522 15.6209C0.991209 15.6606 1.00614 15.7049 1.04117 15.7274C2.73171 16.8218 4.68643 17.4 6.69425 17.4C13.2619 17.4 17.1865 12.0148 17.1865 6.80866C17.1865 6.66369 17.1837 6.51947 17.178 6.37562C17.8865 5.85251 18.4947 5.21217 18.9851 4.47096C19.007 4.43783 19.0046 4.39373 18.979 4.36284Z" fill="white"/>
  </symbol>
  <!-- ellipsis -->
  <symbol id="ellipsis" viewBox="0 0 40 40" xmlns="http://www.w3.org/2000/svg">
    <path d="M39.5 20C39.5 30.7696 30.7696 39.5 20 39.5C9.23045 39.5 0.5 30.7696 0.5 20C0.5 9.23045 9.23045 0.5 20 0.5C30.7696 0.5 39.5 9.23045 39.5 20Z" stroke="#D9DADB"/>
    <path fill-rule="evenodd" clip-rule="evenodd" d="M12 22C10.8954 22 10 21.1046 10 20C10 18.8954 10.8954 18 12 18C13.1046 18 14 18.8954 14 20C14 21.1046 13.1046 22 12 22ZM20 22C18.8954 22 18 21.1046 18 20C18 18.8954 18.8954 18 20 18C21.1046 18 22 18.8954 22 20C22 21.1046 21.1046 22 20 22ZM28 22C26.8954 22 26 21.1046 26 20C26 18.8954 26.8954 18 28 18C29.1046 18 30 18.8954 30 20C30 21.1046 29.1046 22 28 22Z" fill="#BCBFC2"/>
  </symbol>
  <!-- quote -->
  <symbol id="quote" viewBox="0 0 70 70" xmlns="http://www.w3.org/2000/svg">
    <path fill-rule="evenodd" clip-rule="evenodd" d="M15.5556 33.4444V38.5H31.5V70H0.000775983L0 33.4444C0 21.4003 3.48649 11.429 10.3617 5.83328C15.1177 1.96256 20.8827 0 28 0V16.5789C24.1364 16.5789 15.5556 18.1255 15.5556 33.4444ZM54.0556 33.4444V38.5H70V70H38.5V33.4444C38.5 21.4003 41.5976 11.429 48.4728 5.83328C53.2288 1.96256 59.3827 0 66.5 0V16.5789C62.6364 16.5789 54.0556 18.1255 54.0556 33.4444Z" fill="#C5E4FC"/>
  </symbol>
  <!-- arrow-article-next -->
  <symbol id="arrow-article-next" viewBox="0 0 60 60" xmlns="http://www.w3.org/2000/svg">
<path opacity="0.4" fill-rule="evenodd" clip-rule="evenodd" d="M30 60C13.4315 60 0 46.5685 0 30C0 13.4315 13.4315 0 30 0C46.5685 0 60 13.4315 60 30C60 46.5685 46.5685 60 30 60ZM34.6948 30L27.2797 37.3779C26.9068 37.749 26.9068 38.3506 27.2797 38.7217C27.6526 39.0928 28.2571 39.0928 28.63 38.7217L36.7203 30.6719C37.0932 30.3008 37.0932 29.6992 36.7203 29.3281L28.63 21.2783C28.2571 20.9072 27.6526 20.9072 27.2797 21.2783C26.9068 21.6494 26.9068 22.251 27.2797 22.6221L34.6948 30Z" fill="white"/>
  </symbol>
  <!-- arrow-article-prev -->
  <symbol id="arrow-article-prev" viewBox="0 0 60 60" xmlns="http://www.w3.org/2000/svg">
<path opacity="0.4" fill-rule="evenodd" clip-rule="evenodd" d="M30 60C46.5685 60 60 46.5685 60 30C60 13.4315 46.5685 0 30 0C13.4315 0 0 13.4315 0 30C0 46.5685 13.4315 60 30 60ZM25.3052 30L32.7203 37.3779C33.0932 37.749 33.0932 38.3506 32.7203 38.7217C32.3474 39.0928 31.7429 39.0928 31.37 38.7217L23.2797 30.6719C22.9068 30.3008 22.9068 29.6992 23.2797 29.3281L31.37 21.2783C31.7429 20.9072 32.3474 20.9072 32.7203 21.2783C33.0932 21.6494 33.0932 22.251 32.7203 22.6221L25.3052 30Z" fill="white"/>
  </symbol>  
  <!-- pencil -->
  <symbol id="pencil" viewBox="0 0 20 20" xmlns="http://www.w3.org/2000/svg">
    <path fill-rule="evenodd" clip-rule="evenodd" d="M1 15.2V19H4.8L15.8 7.90004L12 4.10004L1 15.2ZM18.7 5.00004C19.1 4.60004 19.1 4.00004 18.7 3.60004L16.4 1.3C16 0.9 15.4 0.9 15 1.3L13.2 3.1L17 6.9L18.7 5.00004Z" fill="#BCBFC2"/>
  </symbol>  
  <!-- thumb-up -->
  <symbol id="thumb-up" viewBox="0 0 15 15" xmlns="http://www.w3.org/2000/svg">
    <path fill-rule="evenodd" clip-rule="evenodd" d="M1.5 12.75C1.08579 12.75 0.75 12.4142 0.75 12V5.24999C0.75 4.83578 1.08579 4.49999 1.5 4.49999H2.25C2.66421 4.49999 3 4.83578 3 5.24999V12C3 12.4142 2.66421 12.75 2.25 12.75H1.5ZM13.0227 4.20938C13.6977 4.20938 14.25 4.80065 14.25 5.52329C14.2403 6.52761 14.2162 7.08153 14.1778 7.18507C14.1394 7.2886 13.5089 8.88079 12.2864 11.9616C12.1023 12.4215 10.5902 12.75 10.0993 12.75H5.79C5.115 12.75 4.125 12.1587 4.125 11.4361V4.49999L8.19543 0.287933L8.19774 0.285544C8.55929 -0.0859421 9.15354 -0.0939964 9.52502 0.267554C9.64773 0.464645 9.77045 0.727434 9.77045 0.990222C9.77045 1.05592 9.77045 1.12162 9.77045 1.18731L9.15682 4.20938H13.0227Z" fill="#BCBFC2"/>
  </symbol>  
  <!-- thumb-down -->
  <symbol id="thumb-down" viewBox="0 0 15 15" xmlns="http://www.w3.org/2000/svg">
    <path fill-rule="evenodd" clip-rule="evenodd" d="M13.5 2.24999C13.9142 2.24999 14.25 2.58578 14.25 2.99999V9.74999C14.25 10.1642 13.9142 10.5 13.5 10.5H12.75C12.3358 10.5 12 10.1642 12 9.74999V2.99999C12 2.58578 12.3358 2.24999 12.75 2.24999H13.5ZM1.97727 10.7906C1.30227 10.7906 0.75 10.1993 0.75 9.47669C0.759695 8.47238 0.783758 7.91845 0.822192 7.81492C0.860626 7.71139 1.49111 6.1192 2.71364 3.03836C2.89773 2.57848 4.40981 2.24999 4.90072 2.24999H9.21C9.885 2.24999 10.875 2.84127 10.875 3.56394V10.5L6.80457 14.7121L6.80226 14.7144C6.44071 15.0859 5.84646 15.094 5.47498 14.7324C5.35227 14.5353 5.22955 14.2726 5.22955 14.0098C5.22955 13.9441 5.22955 13.8784 5.22955 13.8127L5.84318 10.7906H1.97727Z" fill="#BCBFC2"/>
  </symbol>
  <!-- load -->
  <symbol id="load" viewBox="0 0 15 15" xmlns="http://www.w3.org/2000/svg">
    <path fill-rule="evenodd" clip-rule="evenodd" d="M3.43156 10.8184C4.39429 11.9973 5.85925 12.75 7.5 12.75C10.3995 12.75 12.75 10.3995 12.75 7.5H14.25C14.25 11.2279 11.2279 14.25 7.5 14.25C5.44514 14.25 3.60473 13.3318 2.36669 11.8833L1.39017 12.8598C1.31984 12.9302 1.22446 12.9697 1.125 12.9697C0.917893 12.9697 0.75 12.8018 0.75 12.5947V9.375C0.75 9.16789 0.917893 9 1.125 9H4.34467C4.44413 9 4.53951 9.03951 4.60984 9.10983C4.75628 9.25628 4.75628 9.49372 4.60984 9.64017L3.43156 10.8184ZM11.5684 4.18156C10.6057 3.00267 9.14075 2.25 7.5 2.25C4.6005 2.25 2.25 4.6005 2.25 7.5H0.75C0.75 3.77208 3.77208 0.75 7.5 0.75C9.55486 0.75 11.3953 1.6682 12.6333 3.11669L13.6098 2.14017C13.7563 1.99372 13.9937 1.99372 14.1402 2.14017C14.2105 2.21049 14.25 2.30587 14.25 2.40533V5.625C14.25 5.83211 14.0821 6 13.875 6H10.6553C10.4482 6 10.2803 5.83211 10.2803 5.625C10.2803 5.52554 10.3198 5.43016 10.3902 5.35984L11.5684 4.18156Z" fill="#BCBFC2"/>
  </symbol>
  <!-- select -->
  <symbol id="select" viewBox="0 0 12 20" xmlns="http://www.w3.org/2000/svg">
    <path fill-rule="evenodd" clip-rule="evenodd" d="M0 9.99951L12 -0.000488281V19.9995L0 9.99951Z"/>
  </symbol>
</svg>