 <svg display="none" xmlns="http://www.w3.org/2000/svg">
  <!-- flag -->
  <symbol id="flag" viewBox="0 0 14 18" xmlns="http://www.w3.org/2000/svg">
    <path fill-rule="evenodd" clip-rule="evenodd" d="M2 0H12C13.1046 0 14 0.89543 14 2V18L7.09495 13L0 18V2C0 0.89543 0.89543 0 2 0Z"/>
  </symbol>
  <!-- arrow-next -->
  <symbol id="arrow-next" viewBox="0 0 15 7" xmlns="http://www.w3.org/2000/svg">
    <path fill-rule="evenodd" clip-rule="evenodd" d="M0 3V4H11V7L15 3.5L11 0V3H0Z" fill="white"/>
  </symbol>
  <!-- arrow-prev -->
  <symbol id="arrow-prev" viewBox="0 0 15 7" xmlns="http://www.w3.org/2000/svg">
    <path fill-rule="evenodd" clip-rule="evenodd" d="M15 3V4H4V7L0 3.5L4 0V3H15Z" fill="white"/>
  </symbol>
  <!-- home -->
  <symbol id="home" viewBox="0 0 18 17" xmlns="http://www.w3.org/2000/svg">
    <path fill-rule="evenodd" clip-rule="evenodd" d="M0 3V4H11V7L15 3.5L11 0V3H0Z" fill="white"/>
  </symbol>
  <!-- comment -->
  <symbol id="comment" viewBox="0 0 15 15" xmlns="http://www.w3.org/2000/svg">
    <path fill-rule="evenodd" clip-rule="evenodd" d="M11.1346 12V15L8.36064 12H2.25C1.42157 12 0.75 11.3284 0.75 10.5V3C0.75 2.17157 1.42157 1.5 2.25 1.5H12.75C13.5784 1.5 14.25 2.17157 14.25 3V10.5C14.25 11.3284 13.5784 12 12.75 12H11.1346Z" fill="white"/>
  </symbol>
  <!-- like -->
  <symbol id="like" viewBox="0 0 13 13" xmlns="http://www.w3.org/2000/svg">
    <path fill-rule="evenodd" clip-rule="evenodd" d="M11.8391 1.96008C11.1701 1.21166 10.2807 0.799805 9.33459 0.799805C8.38831 0.799805 7.59423 1.21166 6.925 1.96008L6.49998 2.63896L6.075 1.96008C5.40597 1.21166 4.61164 0.799805 3.66557 0.799805C2.71953 0.799805 1.82982 1.21166 1.16086 1.96008C-0.220288 3.5053 -0.220288 6.01943 1.16086 7.56405L6.10991 12.3205C6.19083 12.4114 6.29157 12.467 6.39682 12.4884C6.43211 12.4962 6.46761 12.4998 6.50317 12.4998C6.64318 12.4998 6.78341 12.4401 6.89004 12.3205L11.8391 7.56405C13.2203 6.01943 13.2203 3.5053 11.8391 1.96008Z" fill="white"/>
  </symbol>
  <!-- time -->
  <symbol id="time" viewBox="0 0 18 17" xmlns="http://www.w3.org/2000/svg">
    <path fill-rule="evenodd" clip-rule="evenodd" d="M7.5 14.25C3.77208 14.25 0.75 11.2279 0.75 7.5C0.75 3.77208 3.77208 0.75 7.5 0.75C11.2279 0.75 14.25 3.77208 14.25 7.5C14.25 11.2279 11.2279 14.25 7.5 14.25ZM8.25 7.5V4.5C8.25 4.08579 7.91421 3.75 7.5 3.75C7.08579 3.75 6.75 4.08579 6.75 4.5V8.25C6.75 8.66421 7.08579 9 7.5 9H9.75C10.1642 9 10.5 8.66421 10.5 8.25C10.5 7.83579 10.1642 7.5 9.75 7.5H8.25Z" fill="white"/>
  </symbol>
</svg>